<svg width="55" height="60" viewBox="0 0 55 60" fill="none" xmlns="http://www.w3.org/2000/svg">
<path d="M19.3359 38.2642H12.8906C6.95782 38.2642 2.14844 33.1956 2.14844 26.9434V15.6227C2.14844 9.37033 6.95782 4.30191 12.8906 4.30191H19.3359C13.4031 4.30191 8.59375 9.37033 8.59375 15.6227V26.9434C8.59375 33.1956 13.4031 38.2642 19.3359 38.2642ZM27.0703 46.4151V38.3774H20.625V46.4151C20.625 52.6673 25.4344 57.7359 31.3672 57.7359H37.8125C31.8797 57.7359 27.0703 52.6673 27.0703 46.4151Z" fill="#CEE1F2"/>
<path d="M41.6797 50.9434H31.7969C29.1906 50.9434 27.0703 48.7089 27.0703 45.9623V37.6981C27.0703 36.4477 28.0322 35.434 29.2188 35.434C30.4053 35.434 31.3672 36.4477 31.3672 37.6981V45.9623C31.3672 46.212 31.5599 46.4151 31.7969 46.4151H41.6797C41.9167 46.4151 42.1094 46.212 42.1094 45.9623V35.5472C42.1094 35.2975 41.9167 35.0944 41.6797 35.0944H33.4082C32.2216 35.0944 31.2598 34.0807 31.2598 32.8302C31.2598 31.5797 32.2216 30.5661 33.4082 30.5661H41.6797C44.286 30.5661 46.4062 32.8006 46.4062 35.5472V45.9623C46.4062 48.7089 44.286 50.9434 41.6797 50.9434Z" fill="#2196F3"/>
<path d="M42.1094 21.5094H36.5234V15.6227C36.5234 8.13194 30.7407 2.03775 23.6328 2.03775H12.8906C5.78273 2.03775 0 8.13194 0 15.6227V26.9434C0 34.4341 5.78273 40.5283 12.8906 40.5283H18.4766V46.4151C18.4766 53.9058 24.2593 60 31.3672 60H42.1094C49.2173 60 55 53.9058 55 46.4151V35.0944C55 27.6036 49.2173 21.5094 42.1094 21.5094ZM4.29688 26.9434V15.6227C4.29688 10.6288 8.15203 6.56605 12.8906 6.56605H23.6328C28.3714 6.56605 32.2266 10.6288 32.2266 15.6227V26.9434C32.2266 31.9372 28.3714 36 23.6328 36H12.8906C8.15203 36 4.29688 31.9372 4.29688 26.9434ZM50.7031 46.4151C50.7031 51.4089 46.848 55.4717 42.1094 55.4717H31.3672C26.6286 55.4717 22.7734 51.4089 22.7734 46.4151V40.5283H23.6328C30.7407 40.5283 36.5234 34.4341 36.5234 26.9434V26.0378H42.1094C46.848 26.0378 50.7031 30.1005 50.7031 35.0944V46.4151Z" fill="#0023C4"/>
<path d="M21.7661 26.4243C21.4913 26.7575 21.1163 26.9434 20.7268 26.9434C20.3374 26.9434 19.9624 26.7575 19.6876 26.4243L11.3882 16.4195C10.5269 15.3813 10.5269 13.698 11.3882 12.6618L12.4274 11.4089C13.289 10.3708 14.684 10.3708 15.5453 11.4089L20.7268 17.6545L34.7281 0.778589C35.5897 -0.25953 36.9861 -0.25953 37.8461 0.778589L38.8853 2.03147C39.7466 3.06959 39.7466 4.75264 38.8853 5.78913L21.7661 26.4243Z" fill="#2196F3"/>
</svg>
